<?xml version="1.0" standalone="no"?>
<!DOCTYPE svg PUBLIC "-//W3C//DTD SVG 20010904//EN"
 "http://www.w3.org/TR/2001/REC-SVG-20010904/DTD/svg10.dtd">
<svg version="1.0" xmlns="http://www.w3.org/2000/svg"
 width="700.000000pt" height="700.000000pt" viewBox="0 0 700.000000 700.000000"
 preserveAspectRatio="xMidYMid meet">
<metadata>
Created by potrace 1.11, written by Peter Selinger 2001-2013
</metadata>
<g transform="translate(0.000000,700.000000) scale(0.100000,-0.100000)"
fill="#000000" stroke="none">
<path d="M0 3500 l0 -3500 3500 0 3500 0 0 3500 0 3500 -3500 0 -3500 0 0
-3500z m4968 2315 c165 -34 302 -107 425 -224 122 -117 194 -233 243 -398 23
-75 27 -107 27 -213 1 -110 -3 -135 -27 -210 -91 -279 -344 -675 -732 -1141
l-107 -129 -467 0 c-524 0 -523 0 -604 -71 -162 -143 -121 -399 79 -491 50
-23 52 -23 605 -28 l555 -5 95 -33 c156 -54 265 -125 373 -242 149 -161 227
-363 227 -589 0 -227 -79 -425 -234 -588 -120 -128 -253 -207 -424 -256 l-77
-22 -1329 -3 -1328 -3 31 38 c64 76 268 351 331 445 l65 97 1076 1 c1203 0
1127 -4 1214 72 70 62 99 126 100 218 0 62 -5 85 -28 132 -32 64 -80 111 -146
142 -45 20 -64 21 -601 27 -601 6 -581 4 -730 65 -137 55 -286 175 -376 301
-174 242 -207 586 -84 859 119 263 364 452 654 503 33 6 171 11 308 11 l247 0
-78 118 c-167 251 -271 454 -312 614 -18 70 -21 100 -16 198 6 129 23 202 72
307 101 220 280 385 505 467 125 46 334 60 468 31z m-2858 -2345 c103 -29 222
-89 305 -153 264 -203 394 -565 310 -863 -75 -262 -354 -702 -730 -1148 -55
-66 -103 -124 -108 -130 -5 -7 -13 -4 -25 10 -9 12 -60 73 -114 136 -283 336
-549 731 -658 977 -75 172 -97 288 -80 426 47 382 322 681 700 761 96 20 304
12 400 -16z"/>
<path d="M4720 5234 c-131 -35 -211 -139 -213 -274 -1 -87 30 -156 94 -214
180 -161 457 -50 477 190 15 195 -169 349 -358 298z"/>
<path d="M1821 2909 c-84 -16 -159 -75 -203 -159 -18 -36 -23 -61 -23 -125 0
-70 4 -87 30 -134 56 -101 142 -151 261 -151 124 0 235 85 270 207 60 206
-122 402 -335 362z"/>
</g>
</svg>
